<?xml version="1.0" standalone="no"?>
<!DOCTYPE svg PUBLIC "-//W3C//DTD SVG 20010904//EN"
 "http://www.w3.org/TR/2001/REC-SVG-20010904/DTD/svg10.dtd">
<svg version="1.0" xmlns="http://www.w3.org/2000/svg"
 width="300.000000pt" height="300.000000pt" viewBox="0 0 300.000000 300.000000"
 preserveAspectRatio="xMidYMid meet">
<metadata>
Created by potrace 1.11, written by Peter Selinger 2001-2013
</metadata>
<g transform="translate(0.000000,300.000000) scale(0.100000,-0.100000)"
fill="#000000" stroke="none">
<path d="M390 2838 c-1 -45 -1 -2662 0 -2718 l0 -45 243 0 c133 -1 244 2 247
6 3 4 5 291 5 638 0 347 3 631 6 631 3 0 20 -17 39 -37 40 -46 209 -230 231
-252 8 -9 65 -70 125 -136 59 -66 118 -129 129 -140 11 -12 65 -70 120 -130
91 -101 144 -158 234 -255 18 -19 70 -75 114 -124 45 -48 105 -114 134 -145
l52 -56 305 0 c168 0 306 1 306 3 0 2 -6 9 -12 16 -11 11 -194 202 -398 416
-30 32 -129 135 -220 230 -91 94 -187 195 -214 223 -104 110 -384 403 -433
454 -29 30 -53 57 -53 60 0 3 44 55 98 116 140 161 141 163 232 267 45 52 97
111 114 130 18 19 92 105 166 190 73 85 141 162 149 171 9 8 35 38 58 65 23
27 120 139 216 249 l175 200 -265 3 -265 2 -33 -37 c-294 -340 -741 -856 -760
-877 -6 -6 -64 -74 -129 -151 -66 -77 -124 -144 -130 -150 -6 -5 -26 -28 -45
-50 -19 -22 -37 -38 -40 -35 -3 3 -6 295 -6 650 l0 645 -247 3 -248 2 0 -32z"/>
</g>
</svg>
